# xmcd CD database file
#
# Track frame offsets:
#	150
#	25993
#	52443
#	74842
#	96739
#	111166
#	135393
#	158088
#	178028
#	193084
#	221545
#	244264
#	266529
#	280547
#	299462
#	316782
#
# Disc length: 4618 seconds
#
# Revision: 0
# Processed by: cddbd v1.5.2PL0 Copyright (c) Steve Scherf et al.
# Submitted via: CDex 1.51
#
DISCID=00120810
DTITLE=Vince Guaraldi Trio - Cast Your Fate To The Wind
DYEAR=1961
DGENRE=Jazz
TTITLE0=Samba De Orfeu
TTITLE1=Manha De Carnaval
TTITLE2=O Nosso Amor
TTITLE3=Felicidade
TTITLE4=Cast Your Fate To The Wind
TTITLE5=Moon River
TTITLE6=Alma-Ville
TTITLE7=Since I Fell For You
TTITLE8=Samba De Orfeu (single version)
TTITLE9=Manha De Carnaval (alt.)
TTITLE10=O Nosso Amor (alt.)
TTITLE11=Felicidade (alt.)
TTITLE12=Cast Your Fate To The Wind (alt.)
TTITLE13=Ginza
TTITLE14=The Night We Called It A Day
TTITLE15=I'm Afraid The Masquerade Is Over
EXTD=YEAR: 1961
EXTT0=
EXTT1=
EXTT2=
EXTT3=
EXTT4=
EXTT5=
EXTT6=
EXTT7=
EXTT8=
EXTT9=
EXTT10=
EXTT11=
EXTT12=
EXTT13=
EXTT14=
EXTT15=
PLAYORDER=
